<svg xmlns="http://www.w3.org/2000/svg" xmlns:xlink="http://www.w3.org/1999/xlink" width="500" zoomAndPan="magnify" viewBox="0 0 375 374.999991" height="500" preserveAspectRatio="xMidYMid meet" version="1.2"><defs/><g id="f15012e55d"><rect x="0" width="375" y="0" height="374.999991" style="fill:#ffffff;fill-opacity:1;stroke:none;"/><rect x="0" width="375" y="0" height="374.999991" style="fill:#000000;fill-opacity:1;stroke:none;"/><g style="fill:#ffffff;fill-opacity:1;"><g transform="translate(106.42235, 216.007018)"><path style="stroke:none" d="M 19.34375 -6.625 L 26.46875 -33.59375 L 36.375 -33.59375 L 36.375 0 L 29.859375 0 L 29.859375 -28 L 22.53125 0 L 16.109375 0 L 8.734375 -28.046875 L 8.734375 0 L 2.28125 0 L 2.28125 -33.59375 L 12.171875 -33.59375 Z M 19.34375 -6.625 "/></g></g><g style="fill:#ffffff;fill-opacity:1;"><g transform="translate(141.789146, 216.007018)"><path style="stroke:none" d="M 13.34375 -24.609375 C 15.550781 -24.609375 17.46875 -24.3125 19.09375 -23.71875 C 20.726562 -23.125 21.992188 -22.140625 22.890625 -20.765625 C 23.785156 -19.398438 24.234375 -17.546875 24.234375 -15.203125 L 24.234375 -0.5 C 22.597656 -0.132812 20.800781 0.144531 18.84375 0.34375 C 16.882812 0.550781 15.09375 0.65625 13.46875 0.65625 C 11.03125 0.65625 8.925781 0.410156 7.15625 -0.078125 C 5.394531 -0.578125 4.035156 -1.390625 3.078125 -2.515625 C 2.128906 -3.648438 1.65625 -5.144531 1.65625 -7 L 1.65625 -7.078125 C 1.65625 -9.617188 2.609375 -11.484375 4.515625 -12.671875 C 6.421875 -13.859375 9.003906 -14.453125 12.265625 -14.453125 C 13.148438 -14.453125 14.023438 -14.429688 14.890625 -14.390625 C 15.765625 -14.347656 16.679688 -14.257812 17.640625 -14.125 L 17.640625 -15 C 17.640625 -16.488281 17.140625 -17.535156 16.140625 -18.140625 C 15.148438 -18.742188 13.742188 -19.046875 11.921875 -19.046875 C 10.734375 -19.046875 9.367188 -18.898438 7.828125 -18.609375 C 6.285156 -18.328125 4.863281 -17.921875 3.5625 -17.390625 L 5.015625 -23.234375 C 5.617188 -23.484375 6.375 -23.710938 7.28125 -23.921875 C 8.195312 -24.128906 9.1875 -24.296875 10.25 -24.421875 C 11.3125 -24.546875 12.34375 -24.609375 13.34375 -24.609375 Z M 8.40625 -7.421875 L 8.40625 -7.328125 C 8.40625 -6.304688 8.867188 -5.570312 9.796875 -5.125 C 10.722656 -4.6875 12.023438 -4.46875 13.703125 -4.46875 C 14.867188 -4.46875 16.179688 -4.582031 17.640625 -4.8125 L 17.640625 -9.9375 C 16.984375 -10.050781 16.296875 -10.132812 15.578125 -10.1875 C 14.859375 -10.238281 14.234375 -10.265625 13.703125 -10.265625 C 12.046875 -10.265625 10.75 -10.050781 9.8125 -9.625 C 8.875 -9.195312 8.40625 -8.460938 8.40625 -7.421875 Z M 8.40625 -7.421875 "/></g></g><g style="fill:#ffde59;fill-opacity:1;"><g transform="translate(164.898912, 216.007018)"><path style="stroke:none" d="M 25.71875 -22.453125 L 25.71875 9.109375 L 19.140625 9.109375 L 19.140625 -0.046875 C 18.421875 0.148438 17.6875 0.3125 16.9375 0.4375 C 16.195312 0.5625 15.425781 0.625 14.625 0.625 C 11.945312 0.625 9.640625 0.078125 7.703125 -1.015625 C 5.773438 -2.109375 4.289062 -3.609375 3.25 -5.515625 C 2.21875 -7.421875 1.703125 -9.570312 1.703125 -11.96875 L 1.703125 -12.046875 C 1.703125 -14.484375 2.238281 -16.65625 3.3125 -18.5625 C 4.382812 -20.46875 5.910156 -21.972656 7.890625 -23.078125 C 9.867188 -24.179688 12.207031 -24.734375 14.90625 -24.734375 C 17.113281 -24.734375 19.109375 -24.5 20.890625 -24.03125 C 22.671875 -23.5625 24.28125 -23.035156 25.71875 -22.453125 Z M 14.90625 -5.265625 C 15.625 -5.265625 16.347656 -5.332031 17.078125 -5.46875 C 17.816406 -5.601562 18.503906 -5.753906 19.140625 -5.921875 L 19.140625 -18.34375 C 17.867188 -18.675781 16.457031 -18.84375 14.90625 -18.84375 C 12.757812 -18.84375 11.125 -18.191406 10 -16.890625 C 8.882812 -15.597656 8.328125 -13.984375 8.328125 -12.046875 L 8.328125 -11.96875 C 8.328125 -10.0625 8.882812 -8.46875 10 -7.1875 C 11.125 -5.90625 12.757812 -5.265625 14.90625 -5.265625 Z M 14.90625 -5.265625 "/></g></g><g style="fill:#ffde59;fill-opacity:1;"><g transform="translate(189.580887, 216.007018)"><path style="stroke:none" d="M 13.046875 0.65625 C 10.835938 0.65625 8.910156 0.472656 7.265625 0.109375 C 5.628906 -0.242188 3.953125 -0.832031 2.234375 -1.65625 L 2.234375 -33.59375 L 8.828125 -33.59375 L 8.828125 -24.109375 C 9.546875 -24.273438 10.28125 -24.421875 11.03125 -24.546875 C 11.789062 -24.671875 12.5625 -24.734375 13.34375 -24.734375 C 16.039062 -24.734375 18.359375 -24.1875 20.296875 -23.09375 C 22.234375 -22 23.710938 -20.5 24.734375 -18.59375 C 25.753906 -16.6875 26.265625 -14.519531 26.265625 -12.09375 L 26.265625 -12.015625 C 26.265625 -9.585938 25.722656 -7.421875 24.640625 -5.515625 C 23.566406 -3.609375 22.039062 -2.101562 20.0625 -1 C 18.09375 0.101562 15.753906 0.65625 13.046875 0.65625 Z M 13.046875 -5.21875 C 15.222656 -5.21875 16.863281 -5.875 17.96875 -7.1875 C 19.082031 -8.5 19.640625 -10.109375 19.640625 -12.015625 L 19.640625 -12.09375 C 19.640625 -14 19.082031 -15.597656 17.96875 -16.890625 C 16.863281 -18.191406 15.222656 -18.84375 13.046875 -18.84375 C 12.359375 -18.84375 11.640625 -18.773438 10.890625 -18.640625 C 10.148438 -18.503906 9.460938 -18.363281 8.828125 -18.21875 L 8.828125 -5.75 C 9.460938 -5.59375 10.128906 -5.460938 10.828125 -5.359375 C 11.535156 -5.265625 12.273438 -5.21875 13.046875 -5.21875 Z M 13.046875 -5.21875 "/></g></g><g style="fill:#ffffff;fill-opacity:1;"><g transform="translate(214.269999, 216.007018)"><path style="stroke:none" d="M 26.296875 -11.09375 L 26.296875 -10.515625 L 8.484375 -10.515625 C 8.816406 -9.003906 9.554688 -7.726562 10.703125 -6.6875 C 11.847656 -5.65625 13.320312 -5.140625 15.125 -5.140625 C 16.582031 -5.140625 17.925781 -5.363281 19.15625 -5.8125 C 20.382812 -6.269531 21.425781 -6.804688 22.28125 -7.421875 L 25.140625 -2.3125 C 23.953125 -1.570312 22.515625 -0.894531 20.828125 -0.28125 C 19.148438 0.320312 17.148438 0.625 14.828125 0.625 C 12.179688 0.625 9.867188 0.09375 7.890625 -0.96875 C 5.910156 -2.03125 4.375 -3.515625 3.28125 -5.421875 C 2.195312 -7.328125 1.65625 -9.535156 1.65625 -12.046875 L 1.65625 -12.09375 C 1.65625 -14.582031 2.164062 -16.769531 3.1875 -18.65625 C 4.207031 -20.550781 5.640625 -22.035156 7.484375 -23.109375 C 9.335938 -24.191406 11.523438 -24.734375 14.046875 -24.734375 C 16.585938 -24.734375 18.773438 -24.1875 20.609375 -23.09375 C 22.441406 -22 23.847656 -20.4375 24.828125 -18.40625 C 25.804688 -16.382812 26.296875 -13.945312 26.296875 -11.09375 Z M 14 -19.390625 C 12.5625 -19.390625 11.363281 -18.929688 10.40625 -18.015625 C 9.457031 -17.109375 8.832031 -15.960938 8.53125 -14.578125 L 19.59375 -14.578125 C 19.34375 -15.960938 18.75 -17.109375 17.8125 -18.015625 C 16.875 -18.929688 15.601562 -19.390625 14 -19.390625 Z M 14 -19.390625 "/></g></g><g style="fill:#ffffff;fill-opacity:1;"><g transform="translate(238.99339, 216.007018)"><path style="stroke:none" d="M 26.296875 -11.09375 L 26.296875 -10.515625 L 8.484375 -10.515625 C 8.816406 -9.003906 9.554688 -7.726562 10.703125 -6.6875 C 11.847656 -5.65625 13.320312 -5.140625 15.125 -5.140625 C 16.582031 -5.140625 17.925781 -5.363281 19.15625 -5.8125 C 20.382812 -6.269531 21.425781 -6.804688 22.28125 -7.421875 L 25.140625 -2.3125 C 23.953125 -1.570312 22.515625 -0.894531 20.828125 -0.28125 C 19.148438 0.320312 17.148438 0.625 14.828125 0.625 C 12.179688 0.625 9.867188 0.09375 7.890625 -0.96875 C 5.910156 -2.03125 4.375 -3.515625 3.28125 -5.421875 C 2.195312 -7.328125 1.65625 -9.535156 1.65625 -12.046875 L 1.65625 -12.09375 C 1.65625 -14.582031 2.164062 -16.769531 3.1875 -18.65625 C 4.207031 -20.550781 5.640625 -22.035156 7.484375 -23.109375 C 9.335938 -24.191406 11.523438 -24.734375 14.046875 -24.734375 C 16.585938 -24.734375 18.773438 -24.1875 20.609375 -23.09375 C 22.441406 -22 23.847656 -20.4375 24.828125 -18.40625 C 25.804688 -16.382812 26.296875 -13.945312 26.296875 -11.09375 Z M 14 -19.390625 C 12.5625 -19.390625 11.363281 -18.929688 10.40625 -18.015625 C 9.457031 -17.109375 8.832031 -15.960938 8.53125 -14.578125 L 19.59375 -14.578125 C 19.34375 -15.960938 18.75 -17.109375 17.8125 -18.015625 C 16.875 -18.929688 15.601562 -19.390625 14 -19.390625 Z M 14 -19.390625 "/></g></g><g style="fill:#ffbd59;fill-opacity:1;"><g transform="translate(110.984045, 239.729999)"><path style="stroke:none" d="M 4.21875 0 L 0.6875 0 L 0.6875 -10.34375 L 4.21875 -10.34375 C 5.414062 -10.34375 6.410156 -10.132812 7.203125 -9.71875 C 8.003906 -9.3125 8.601562 -8.726562 9 -7.96875 C 9.394531 -7.207031 9.59375 -6.296875 9.59375 -5.234375 L 9.59375 -5.21875 C 9.59375 -4.132812 9.394531 -3.203125 9 -2.421875 C 8.601562 -1.648438 8.003906 -1.050781 7.203125 -0.625 C 6.410156 -0.207031 5.414062 0 4.21875 0 Z M 2.703125 -8.46875 L 2.703125 -1.875 L 4.171875 -1.875 C 5.253906 -1.875 6.082031 -2.15625 6.65625 -2.71875 C 7.238281 -3.289062 7.53125 -4.125 7.53125 -5.21875 L 7.53125 -5.234375 C 7.53125 -6.285156 7.242188 -7.085938 6.671875 -7.640625 C 6.097656 -8.191406 5.265625 -8.46875 4.171875 -8.46875 Z M 2.703125 -8.46875 "/></g></g><g style="fill:#ffbd59;fill-opacity:1;"><g transform="translate(120.59739, 239.729999)"><path style="stroke:none" d="M 8.09375 -3.421875 L 8.09375 -3.234375 L 2.609375 -3.234375 C 2.710938 -2.765625 2.941406 -2.367188 3.296875 -2.046875 C 3.648438 -1.734375 4.101562 -1.578125 4.65625 -1.578125 C 5.101562 -1.578125 5.515625 -1.644531 5.890625 -1.78125 C 6.273438 -1.925781 6.597656 -2.09375 6.859375 -2.28125 L 7.734375 -0.71875 C 7.367188 -0.488281 6.925781 -0.28125 6.40625 -0.09375 C 5.894531 0.09375 5.28125 0.1875 4.5625 0.1875 C 3.75 0.1875 3.035156 0.0234375 2.421875 -0.296875 C 1.816406 -0.628906 1.347656 -1.085938 1.015625 -1.671875 C 0.679688 -2.253906 0.515625 -2.929688 0.515625 -3.703125 L 0.515625 -3.71875 C 0.515625 -4.488281 0.671875 -5.164062 0.984375 -5.75 C 1.296875 -6.332031 1.734375 -6.785156 2.296875 -7.109375 C 2.867188 -7.441406 3.546875 -7.609375 4.328125 -7.609375 C 5.109375 -7.609375 5.78125 -7.441406 6.34375 -7.109375 C 6.90625 -6.773438 7.335938 -6.296875 7.640625 -5.671875 C 7.941406 -5.046875 8.09375 -4.296875 8.09375 -3.421875 Z M 4.3125 -5.96875 C 3.863281 -5.96875 3.492188 -5.828125 3.203125 -5.546875 C 2.910156 -5.265625 2.71875 -4.910156 2.625 -4.484375 L 6.03125 -4.484375 C 5.957031 -4.910156 5.773438 -5.265625 5.484375 -5.546875 C 5.191406 -5.828125 4.800781 -5.96875 4.3125 -5.96875 Z M 4.3125 -5.96875 "/></g></g><g style="fill:#ffbd59;fill-opacity:1;"><g transform="translate(128.731736, 239.729999)"><path style="stroke:none" d="M 3.734375 0.171875 C 2.617188 0.171875 1.546875 -0.0390625 0.515625 -0.46875 L 1.078125 -1.9375 C 1.492188 -1.75 1.921875 -1.613281 2.359375 -1.53125 C 2.796875 -1.445312 3.195312 -1.40625 3.5625 -1.40625 C 3.988281 -1.40625 4.335938 -1.445312 4.609375 -1.53125 C 4.878906 -1.613281 5.015625 -1.785156 5.015625 -2.046875 C 5.015625 -2.242188 4.925781 -2.398438 4.75 -2.515625 C 4.582031 -2.628906 4.234375 -2.757812 3.703125 -2.90625 L 3.015625 -3.078125 C 2.242188 -3.285156 1.679688 -3.578125 1.328125 -3.953125 C 0.972656 -4.328125 0.796875 -4.816406 0.796875 -5.421875 C 0.796875 -6.097656 1.050781 -6.628906 1.5625 -7.015625 C 2.070312 -7.398438 2.804688 -7.59375 3.765625 -7.59375 C 4.316406 -7.59375 4.859375 -7.535156 5.390625 -7.421875 C 5.921875 -7.304688 6.375 -7.15625 6.75 -6.96875 L 6.15625 -5.546875 C 5.832031 -5.710938 5.46875 -5.832031 5.0625 -5.90625 C 4.664062 -5.988281 4.3125 -6.03125 4 -6.03125 C 3.632812 -6.03125 3.347656 -5.988281 3.140625 -5.90625 C 2.929688 -5.820312 2.828125 -5.679688 2.828125 -5.484375 C 2.828125 -5.296875 2.921875 -5.144531 3.109375 -5.03125 C 3.304688 -4.925781 3.625 -4.804688 4.0625 -4.671875 L 4.59375 -4.53125 C 5.414062 -4.300781 6.019531 -4 6.40625 -3.625 C 6.800781 -3.257812 7 -2.785156 7 -2.203125 C 7 -0.617188 5.910156 0.171875 3.734375 0.171875 Z M 3.734375 0.171875 "/></g></g><g style="fill:#ffbd59;fill-opacity:1;"><g transform="translate(135.756828, 239.729999)"><path style="stroke:none" d="M 1.703125 -8.28125 C 1.421875 -8.28125 1.179688 -8.347656 0.984375 -8.484375 C 0.785156 -8.628906 0.6875 -8.859375 0.6875 -9.171875 C 0.6875 -9.441406 0.78125 -9.65625 0.96875 -9.8125 C 1.164062 -9.96875 1.410156 -10.046875 1.703125 -10.046875 C 1.992188 -10.046875 2.234375 -9.96875 2.421875 -9.8125 C 2.609375 -9.65625 2.703125 -9.441406 2.703125 -9.171875 C 2.703125 -8.859375 2.601562 -8.628906 2.40625 -8.484375 C 2.207031 -8.347656 1.972656 -8.28125 1.703125 -8.28125 Z M 2.71875 0 L 0.6875 0 L 0.6875 -7.3125 L 2.71875 -7.3125 Z M 2.71875 0 "/></g></g><g style="fill:#ffbd59;fill-opacity:1;"><g transform="translate(138.676434, 239.729999)"><path style="stroke:none" d="M 4.734375 -7.609375 C 5.359375 -7.609375 5.953125 -7.53125 6.515625 -7.375 C 7.085938 -7.226562 7.5625 -7.066406 7.9375 -6.890625 L 7.9375 0.046875 C 7.9375 0.773438 7.78125 1.347656 7.46875 1.765625 C 7.164062 2.191406 6.757812 2.492188 6.25 2.671875 C 5.738281 2.847656 5.1875 2.9375 4.59375 2.9375 C 4.289062 2.9375 3.984375 2.914062 3.671875 2.875 C 3.367188 2.84375 3.085938 2.796875 2.828125 2.734375 C 2.566406 2.679688 2.359375 2.617188 2.203125 2.546875 L 1.765625 0.671875 C 2.003906 0.773438 2.28125 0.863281 2.59375 0.9375 C 2.90625 1.007812 3.210938 1.0625 3.515625 1.09375 C 3.828125 1.132812 4.097656 1.15625 4.328125 1.15625 C 4.929688 1.15625 5.347656 1.050781 5.578125 0.84375 C 5.804688 0.632812 5.921875 0.300781 5.921875 -0.15625 L 5.921875 -0.453125 C 5.722656 -0.421875 5.519531 -0.390625 5.3125 -0.359375 C 5.101562 -0.335938 4.890625 -0.328125 4.671875 -0.328125 C 3.359375 -0.328125 2.335938 -0.644531 1.609375 -1.28125 C 0.878906 -1.925781 0.515625 -2.832031 0.515625 -4 L 0.515625 -4.03125 C 0.515625 -5.195312 0.894531 -6.082031 1.65625 -6.6875 C 2.414062 -7.300781 3.441406 -7.609375 4.734375 -7.609375 Z M 2.546875 -3.984375 C 2.546875 -3.347656 2.738281 -2.878906 3.125 -2.578125 C 3.507812 -2.285156 4.050781 -2.140625 4.75 -2.140625 C 4.914062 -2.140625 5.097656 -2.148438 5.296875 -2.171875 C 5.492188 -2.191406 5.703125 -2.226562 5.921875 -2.28125 L 5.921875 -5.625 C 5.722656 -5.6875 5.523438 -5.726562 5.328125 -5.75 C 5.128906 -5.78125 4.929688 -5.796875 4.734375 -5.796875 C 4.046875 -5.796875 3.507812 -5.648438 3.125 -5.359375 C 2.738281 -5.078125 2.546875 -4.617188 2.546875 -3.984375 Z M 2.546875 -3.984375 "/></g></g><g style="fill:#ffbd59;fill-opacity:1;"><g transform="translate(146.823528, 239.729999)"><path style="stroke:none" d="M 2.71875 0 L 0.6875 0 L 0.6875 -7.234375 C 1.09375 -7.304688 1.507812 -7.367188 1.9375 -7.421875 C 2.375 -7.484375 2.78125 -7.53125 3.15625 -7.5625 C 3.53125 -7.59375 3.84375 -7.609375 4.09375 -7.609375 C 4.695312 -7.609375 5.253906 -7.523438 5.765625 -7.359375 C 6.285156 -7.191406 6.695312 -6.898438 7 -6.484375 C 7.3125 -6.078125 7.46875 -5.507812 7.46875 -4.78125 L 7.46875 0 L 5.453125 0 L 5.453125 -4.53125 C 5.453125 -5 5.328125 -5.328125 5.078125 -5.515625 C 4.835938 -5.703125 4.476562 -5.796875 4 -5.796875 C 3.820312 -5.796875 3.625 -5.785156 3.40625 -5.765625 C 3.1875 -5.742188 2.957031 -5.710938 2.71875 -5.671875 Z M 2.71875 0 "/></g></g><g style="fill:#ffbd59;fill-opacity:1;"><g transform="translate(154.511622, 239.729999)"><path style="stroke:none" d=""/></g></g><g style="fill:#ffbd59;fill-opacity:1;"><g transform="translate(156.181727, 239.729999)"><path style="stroke:none" d="M 8.765625 -1.921875 L 10.5 0 L 8.140625 0 L 7.453125 -0.796875 C 6.984375 -0.460938 6.484375 -0.21875 5.953125 -0.0625 C 5.421875 0.09375 4.835938 0.171875 4.203125 0.171875 C 3.460938 0.171875 2.816406 0.046875 2.265625 -0.203125 C 1.710938 -0.460938 1.28125 -0.820312 0.96875 -1.28125 C 0.664062 -1.738281 0.515625 -2.269531 0.515625 -2.875 L 0.515625 -2.90625 C 0.515625 -3.488281 0.710938 -4.019531 1.109375 -4.5 C 1.503906 -4.988281 2.125 -5.398438 2.96875 -5.734375 C 2.625 -6.179688 2.375 -6.585938 2.21875 -6.953125 C 2.070312 -7.328125 2 -7.707031 2 -8.09375 L 2 -8.109375 C 2 -8.585938 2.117188 -9.003906 2.359375 -9.359375 C 2.609375 -9.722656 2.953125 -10.003906 3.390625 -10.203125 C 3.835938 -10.410156 4.363281 -10.515625 4.96875 -10.515625 C 5.90625 -10.515625 6.632812 -10.300781 7.15625 -9.875 C 7.675781 -9.445312 7.9375 -8.867188 7.9375 -8.140625 C 7.9375 -7.585938 7.753906 -7.085938 7.390625 -6.640625 C 7.023438 -6.203125 6.441406 -5.78125 5.640625 -5.375 L 7.53125 -3.25 C 7.75 -3.550781 7.921875 -3.890625 8.046875 -4.265625 C 8.171875 -4.640625 8.296875 -5.113281 8.421875 -5.6875 L 10.296875 -5.6875 C 10.117188 -4.84375 9.910156 -4.125 9.671875 -3.53125 C 9.441406 -2.9375 9.140625 -2.398438 8.765625 -1.921875 Z M 3.796875 -8 C 3.796875 -7.769531 3.851562 -7.535156 3.96875 -7.296875 C 4.09375 -7.066406 4.289062 -6.78125 4.5625 -6.4375 C 5.0625 -6.664062 5.457031 -6.90625 5.75 -7.15625 C 6.050781 -7.40625 6.203125 -7.6875 6.203125 -8 C 6.203125 -8.300781 6.109375 -8.554688 5.921875 -8.765625 C 5.734375 -8.984375 5.4375 -9.09375 5.03125 -9.09375 C 4.613281 -9.09375 4.300781 -8.992188 4.09375 -8.796875 C 3.894531 -8.597656 3.796875 -8.332031 3.796875 -8 Z M 2.5625 -3.03125 L 2.5625 -3.015625 C 2.5625 -2.546875 2.738281 -2.1875 3.09375 -1.9375 C 3.445312 -1.6875 3.914062 -1.5625 4.5 -1.5625 C 5.175781 -1.5625 5.757812 -1.726562 6.25 -2.0625 L 3.9375 -4.65625 C 3.445312 -4.40625 3.09375 -4.148438 2.875 -3.890625 C 2.664062 -3.640625 2.5625 -3.351562 2.5625 -3.03125 Z M 2.5625 -3.03125 "/></g></g><g style="fill:#ffbd59;fill-opacity:1;"><g transform="translate(166.547316, 239.729999)"><path style="stroke:none" d=""/></g></g><g style="fill:#ffbd59;fill-opacity:1;"><g transform="translate(168.21742, 239.729999)"><path style="stroke:none" d="M 4.21875 0 L 0.6875 0 L 0.6875 -10.34375 L 4.21875 -10.34375 C 5.414062 -10.34375 6.410156 -10.132812 7.203125 -9.71875 C 8.003906 -9.3125 8.601562 -8.726562 9 -7.96875 C 9.394531 -7.207031 9.59375 -6.296875 9.59375 -5.234375 L 9.59375 -5.21875 C 9.59375 -4.132812 9.394531 -3.203125 9 -2.421875 C 8.601562 -1.648438 8.003906 -1.050781 7.203125 -0.625 C 6.410156 -0.207031 5.414062 0 4.21875 0 Z M 2.703125 -8.46875 L 2.703125 -1.875 L 4.171875 -1.875 C 5.253906 -1.875 6.082031 -2.15625 6.65625 -2.71875 C 7.238281 -3.289062 7.53125 -4.125 7.53125 -5.21875 L 7.53125 -5.234375 C 7.53125 -6.285156 7.242188 -7.085938 6.671875 -7.640625 C 6.097656 -8.191406 5.265625 -8.46875 4.171875 -8.46875 Z M 2.703125 -8.46875 "/></g></g><g style="fill:#ffbd59;fill-opacity:1;"><g transform="translate(177.830766, 239.729999)"><path style="stroke:none" d="M 8.09375 -3.421875 L 8.09375 -3.234375 L 2.609375 -3.234375 C 2.710938 -2.765625 2.941406 -2.367188 3.296875 -2.046875 C 3.648438 -1.734375 4.101562 -1.578125 4.65625 -1.578125 C 5.101562 -1.578125 5.515625 -1.644531 5.890625 -1.78125 C 6.273438 -1.925781 6.597656 -2.09375 6.859375 -2.28125 L 7.734375 -0.71875 C 7.367188 -0.488281 6.925781 -0.28125 6.40625 -0.09375 C 5.894531 0.09375 5.28125 0.1875 4.5625 0.1875 C 3.75 0.1875 3.035156 0.0234375 2.421875 -0.296875 C 1.816406 -0.628906 1.347656 -1.085938 1.015625 -1.671875 C 0.679688 -2.253906 0.515625 -2.929688 0.515625 -3.703125 L 0.515625 -3.71875 C 0.515625 -4.488281 0.671875 -5.164062 0.984375 -5.75 C 1.296875 -6.332031 1.734375 -6.785156 2.296875 -7.109375 C 2.867188 -7.441406 3.546875 -7.609375 4.328125 -7.609375 C 5.109375 -7.609375 5.78125 -7.441406 6.34375 -7.109375 C 6.90625 -6.773438 7.335938 -6.296875 7.640625 -5.671875 C 7.941406 -5.046875 8.09375 -4.296875 8.09375 -3.421875 Z M 4.3125 -5.96875 C 3.863281 -5.96875 3.492188 -5.828125 3.203125 -5.546875 C 2.910156 -5.265625 2.71875 -4.910156 2.625 -4.484375 L 6.03125 -4.484375 C 5.957031 -4.910156 5.773438 -5.265625 5.484375 -5.546875 C 5.191406 -5.828125 4.800781 -5.96875 4.3125 -5.96875 Z M 4.3125 -5.96875 "/></g></g><g style="fill:#ffbd59;fill-opacity:1;"><g transform="translate(185.965111, 239.729999)"><path style="stroke:none" d="M 4.046875 -1.421875 L 5.8125 -7.3125 L 7.9375 -7.3125 L 5.4375 0 L 2.65625 0 L 0.15625 -7.3125 L 2.265625 -7.3125 Z M 4.046875 -1.421875 "/></g></g><g style="fill:#ffbd59;fill-opacity:1;"><g transform="translate(193.563954, 239.729999)"><path style="stroke:none" d="M 8.09375 -3.421875 L 8.09375 -3.234375 L 2.609375 -3.234375 C 2.710938 -2.765625 2.941406 -2.367188 3.296875 -2.046875 C 3.648438 -1.734375 4.101562 -1.578125 4.65625 -1.578125 C 5.101562 -1.578125 5.515625 -1.644531 5.890625 -1.78125 C 6.273438 -1.925781 6.597656 -2.09375 6.859375 -2.28125 L 7.734375 -0.71875 C 7.367188 -0.488281 6.925781 -0.28125 6.40625 -0.09375 C 5.894531 0.09375 5.28125 0.1875 4.5625 0.1875 C 3.75 0.1875 3.035156 0.0234375 2.421875 -0.296875 C 1.816406 -0.628906 1.347656 -1.085938 1.015625 -1.671875 C 0.679688 -2.253906 0.515625 -2.929688 0.515625 -3.703125 L 0.515625 -3.71875 C 0.515625 -4.488281 0.671875 -5.164062 0.984375 -5.75 C 1.296875 -6.332031 1.734375 -6.785156 2.296875 -7.109375 C 2.867188 -7.441406 3.546875 -7.609375 4.328125 -7.609375 C 5.109375 -7.609375 5.78125 -7.441406 6.34375 -7.109375 C 6.90625 -6.773438 7.335938 -6.296875 7.640625 -5.671875 C 7.941406 -5.046875 8.09375 -4.296875 8.09375 -3.421875 Z M 4.3125 -5.96875 C 3.863281 -5.96875 3.492188 -5.828125 3.203125 -5.546875 C 2.910156 -5.265625 2.71875 -4.910156 2.625 -4.484375 L 6.03125 -4.484375 C 5.957031 -4.910156 5.773438 -5.265625 5.484375 -5.546875 C 5.191406 -5.828125 4.800781 -5.96875 4.3125 -5.96875 Z M 4.3125 -5.96875 "/></g></g><g style="fill:#ffbd59;fill-opacity:1;"><g transform="translate(201.698299, 239.729999)"><path style="stroke:none" d="M 2.71875 0 L 0.6875 0 L 0.6875 -10.34375 L 2.71875 -10.34375 Z M 2.71875 0 "/></g></g><g style="fill:#ffbd59;fill-opacity:1;"><g transform="translate(204.617904, 239.729999)"><path style="stroke:none" d="M 4.578125 0.203125 C 3.785156 0.203125 3.082031 0.0351562 2.46875 -0.296875 C 1.863281 -0.640625 1.382812 -1.109375 1.03125 -1.703125 C 0.6875 -2.296875 0.515625 -2.960938 0.515625 -3.703125 L 0.515625 -3.71875 C 0.515625 -4.46875 0.6875 -5.132812 1.03125 -5.71875 C 1.382812 -6.3125 1.863281 -6.773438 2.46875 -7.109375 C 3.070312 -7.441406 3.773438 -7.609375 4.578125 -7.609375 C 5.378906 -7.609375 6.082031 -7.441406 6.6875 -7.109375 C 7.300781 -6.773438 7.78125 -6.3125 8.125 -5.71875 C 8.46875 -5.132812 8.640625 -4.46875 8.640625 -3.71875 L 8.640625 -3.703125 C 8.640625 -2.960938 8.46875 -2.296875 8.125 -1.703125 C 7.78125 -1.109375 7.300781 -0.640625 6.6875 -0.296875 C 6.082031 0.0351562 5.378906 0.203125 4.578125 0.203125 Z M 4.578125 -1.609375 C 4.984375 -1.609375 5.335938 -1.703125 5.640625 -1.890625 C 5.941406 -2.078125 6.175781 -2.328125 6.34375 -2.640625 C 6.519531 -2.960938 6.609375 -3.316406 6.609375 -3.703125 L 6.609375 -3.734375 C 6.609375 -4.128906 6.523438 -4.476562 6.359375 -4.78125 C 6.191406 -5.09375 5.957031 -5.335938 5.65625 -5.515625 C 5.351562 -5.703125 4.992188 -5.796875 4.578125 -5.796875 C 4.171875 -5.796875 3.816406 -5.703125 3.515625 -5.515625 C 3.210938 -5.335938 2.972656 -5.09375 2.796875 -4.78125 C 2.628906 -4.476562 2.546875 -4.128906 2.546875 -3.734375 L 2.546875 -3.703125 C 2.546875 -3.316406 2.628906 -2.960938 2.796875 -2.640625 C 2.972656 -2.328125 3.210938 -2.078125 3.515625 -1.890625 C 3.828125 -1.703125 4.179688 -1.609375 4.578125 -1.609375 Z M 4.578125 -1.609375 "/></g></g><g style="fill:#ffbd59;fill-opacity:1;"><g transform="translate(213.287753, 239.729999)"><path style="stroke:none" d="M 2.71875 2.8125 L 0.6875 2.8125 L 0.6875 -6.90625 C 1.125 -7.082031 1.617188 -7.242188 2.171875 -7.390625 C 2.722656 -7.535156 3.335938 -7.609375 4.015625 -7.609375 C 4.847656 -7.609375 5.566406 -7.4375 6.171875 -7.09375 C 6.785156 -6.757812 7.253906 -6.296875 7.578125 -5.703125 C 7.910156 -5.117188 8.078125 -4.453125 8.078125 -3.703125 L 8.078125 -3.6875 C 8.078125 -2.945312 7.914062 -2.28125 7.59375 -1.6875 C 7.28125 -1.101562 6.828125 -0.644531 6.234375 -0.3125 C 5.648438 0.0195312 4.941406 0.1875 4.109375 0.1875 C 3.867188 0.1875 3.628906 0.164062 3.390625 0.125 C 3.160156 0.09375 2.9375 0.046875 2.71875 -0.015625 Z M 4.015625 -1.625 C 4.691406 -1.625 5.195312 -1.820312 5.53125 -2.21875 C 5.875 -2.613281 6.046875 -3.101562 6.046875 -3.6875 L 6.046875 -3.703125 C 6.046875 -4.304688 5.875 -4.804688 5.53125 -5.203125 C 5.195312 -5.597656 4.691406 -5.796875 4.015625 -5.796875 C 3.546875 -5.796875 3.113281 -5.742188 2.71875 -5.640625 L 2.71875 -1.828125 C 2.914062 -1.773438 3.128906 -1.726562 3.359375 -1.6875 C 3.585938 -1.644531 3.804688 -1.625 4.015625 -1.625 Z M 4.015625 -1.625 "/></g></g><g style="fill:#ffbd59;fill-opacity:1;"><g transform="translate(221.40935, 239.729999)"><path style="stroke:none" d="M 8.09375 -3.421875 L 8.09375 -3.234375 L 2.609375 -3.234375 C 2.710938 -2.765625 2.941406 -2.367188 3.296875 -2.046875 C 3.648438 -1.734375 4.101562 -1.578125 4.65625 -1.578125 C 5.101562 -1.578125 5.515625 -1.644531 5.890625 -1.78125 C 6.273438 -1.925781 6.597656 -2.09375 6.859375 -2.28125 L 7.734375 -0.71875 C 7.367188 -0.488281 6.925781 -0.28125 6.40625 -0.09375 C 5.894531 0.09375 5.28125 0.1875 4.5625 0.1875 C 3.75 0.1875 3.035156 0.0234375 2.421875 -0.296875 C 1.816406 -0.628906 1.347656 -1.085938 1.015625 -1.671875 C 0.679688 -2.253906 0.515625 -2.929688 0.515625 -3.703125 L 0.515625 -3.71875 C 0.515625 -4.488281 0.671875 -5.164062 0.984375 -5.75 C 1.296875 -6.332031 1.734375 -6.785156 2.296875 -7.109375 C 2.867188 -7.441406 3.546875 -7.609375 4.328125 -7.609375 C 5.109375 -7.609375 5.78125 -7.441406 6.34375 -7.109375 C 6.90625 -6.773438 7.335938 -6.296875 7.640625 -5.671875 C 7.941406 -5.046875 8.09375 -4.296875 8.09375 -3.421875 Z M 4.3125 -5.96875 C 3.863281 -5.96875 3.492188 -5.828125 3.203125 -5.546875 C 2.910156 -5.265625 2.71875 -4.910156 2.625 -4.484375 L 6.03125 -4.484375 C 5.957031 -4.910156 5.773438 -5.265625 5.484375 -5.546875 C 5.191406 -5.828125 4.800781 -5.96875 4.3125 -5.96875 Z M 4.3125 -5.96875 "/></g></g><g style="fill:#ffbd59;fill-opacity:1;"><g transform="translate(229.543695, 239.729999)"><path style="stroke:none" d="M 2.71875 0 L 0.6875 0 L 0.6875 -7.234375 C 1.101562 -7.316406 1.515625 -7.382812 1.921875 -7.4375 C 2.335938 -7.488281 2.71875 -7.53125 3.0625 -7.5625 C 3.40625 -7.601562 3.6875 -7.625 3.90625 -7.625 C 4.375 -7.625 4.800781 -7.546875 5.1875 -7.390625 C 5.570312 -7.242188 5.878906 -6.992188 6.109375 -6.640625 C 6.367188 -6.992188 6.707031 -7.242188 7.125 -7.390625 C 7.539062 -7.546875 8.015625 -7.625 8.546875 -7.625 C 9.179688 -7.625 9.722656 -7.53125 10.171875 -7.34375 C 10.628906 -7.164062 10.984375 -6.867188 11.234375 -6.453125 C 11.484375 -6.046875 11.609375 -5.488281 11.609375 -4.78125 L 11.609375 0 L 9.578125 0 L 9.578125 -4.546875 C 9.578125 -4.929688 9.5 -5.238281 9.34375 -5.46875 C 9.1875 -5.695312 8.851562 -5.8125 8.34375 -5.8125 C 7.851562 -5.8125 7.523438 -5.695312 7.359375 -5.46875 C 7.203125 -5.238281 7.125 -4.929688 7.125 -4.546875 L 7.125 0 L 5.109375 0 L 5.109375 -4.546875 C 5.109375 -5.015625 4.988281 -5.34375 4.75 -5.53125 C 4.519531 -5.71875 4.207031 -5.8125 3.8125 -5.8125 C 3.644531 -5.8125 3.46875 -5.800781 3.28125 -5.78125 C 3.101562 -5.757812 2.914062 -5.726562 2.71875 -5.6875 Z M 2.71875 0 "/></g></g><g style="fill:#ffbd59;fill-opacity:1;"><g transform="translate(241.350026, 239.729999)"><path style="stroke:none" d="M 8.09375 -3.421875 L 8.09375 -3.234375 L 2.609375 -3.234375 C 2.710938 -2.765625 2.941406 -2.367188 3.296875 -2.046875 C 3.648438 -1.734375 4.101562 -1.578125 4.65625 -1.578125 C 5.101562 -1.578125 5.515625 -1.644531 5.890625 -1.78125 C 6.273438 -1.925781 6.597656 -2.09375 6.859375 -2.28125 L 7.734375 -0.71875 C 7.367188 -0.488281 6.925781 -0.28125 6.40625 -0.09375 C 5.894531 0.09375 5.28125 0.1875 4.5625 0.1875 C 3.75 0.1875 3.035156 0.0234375 2.421875 -0.296875 C 1.816406 -0.628906 1.347656 -1.085938 1.015625 -1.671875 C 0.679688 -2.253906 0.515625 -2.929688 0.515625 -3.703125 L 0.515625 -3.71875 C 0.515625 -4.488281 0.671875 -5.164062 0.984375 -5.75 C 1.296875 -6.332031 1.734375 -6.785156 2.296875 -7.109375 C 2.867188 -7.441406 3.546875 -7.609375 4.328125 -7.609375 C 5.109375 -7.609375 5.78125 -7.441406 6.34375 -7.109375 C 6.90625 -6.773438 7.335938 -6.296875 7.640625 -5.671875 C 7.941406 -5.046875 8.09375 -4.296875 8.09375 -3.421875 Z M 4.3125 -5.96875 C 3.863281 -5.96875 3.492188 -5.828125 3.203125 -5.546875 C 2.910156 -5.265625 2.71875 -4.910156 2.625 -4.484375 L 6.03125 -4.484375 C 5.957031 -4.910156 5.773438 -5.265625 5.484375 -5.546875 C 5.191406 -5.828125 4.800781 -5.96875 4.3125 -5.96875 Z M 4.3125 -5.96875 "/></g></g><g style="fill:#ffbd59;fill-opacity:1;"><g transform="translate(249.484372, 239.729999)"><path style="stroke:none" d="M 2.71875 0 L 0.6875 0 L 0.6875 -7.234375 C 1.09375 -7.304688 1.507812 -7.367188 1.9375 -7.421875 C 2.375 -7.484375 2.78125 -7.53125 3.15625 -7.5625 C 3.53125 -7.59375 3.84375 -7.609375 4.09375 -7.609375 C 4.695312 -7.609375 5.253906 -7.523438 5.765625 -7.359375 C 6.285156 -7.191406 6.695312 -6.898438 7 -6.484375 C 7.3125 -6.078125 7.46875 -5.507812 7.46875 -4.78125 L 7.46875 0 L 5.453125 0 L 5.453125 -4.53125 C 5.453125 -5 5.328125 -5.328125 5.078125 -5.515625 C 4.835938 -5.703125 4.476562 -5.796875 4 -5.796875 C 3.820312 -5.796875 3.625 -5.785156 3.40625 -5.765625 C 3.1875 -5.742188 2.957031 -5.710938 2.71875 -5.671875 Z M 2.71875 0 "/></g></g><g style="fill:#ffbd59;fill-opacity:1;"><g transform="translate(257.172466, 239.729999)"><path style="stroke:none" d="M 6.28125 0 L 3.96875 0 C 3.09375 0 2.472656 -0.195312 2.109375 -0.59375 C 1.753906 -0.988281 1.578125 -1.585938 1.578125 -2.390625 L 1.578125 -5.453125 L 0.296875 -5.453125 L 0.296875 -7.3125 L 1.578125 -7.3125 L 1.578125 -9.5625 L 3.609375 -9.5625 L 3.609375 -7.3125 L 6.265625 -7.3125 L 6.265625 -5.453125 L 3.609375 -5.453125 L 3.609375 -3.015625 C 3.609375 -2.609375 3.707031 -2.316406 3.90625 -2.140625 C 4.113281 -1.960938 4.4375 -1.875 4.875 -1.875 L 6.28125 -1.875 Z M 6.28125 0 "/></g></g></g></svg>